<svg width="1584" height="1848" viewBox="0 0 1584 1848" fill="none" xmlns="http://www.w3.org/2000/svg">
<path d="M589.776 1218.4V660.04H837.672C898.92 660.04 945.648 674.824 977.856 704.392C1010.06 733.96 1026.17 774.616 1026.17 826.36C1026.17 877.576 1010.06 918.232 977.856 948.328C945.648 978.424 898.92 993.472 837.672 993.472H691.944V1218.4H589.776ZM691.944 912.688H825.792C859.584 912.688 884.928 905.296 901.824 890.512C918.72 875.2 927.168 853.816 927.168 826.36C927.168 798.904 918.72 777.784 901.824 763C884.928 747.688 859.584 740.032 825.792 740.032H691.944V912.688Z" fill="white"/>
<circle cx="1267.2" cy="316.8" r="316.8" fill="#A9C3EE"/>
<path d="M633.6 1531.2C633.6 1706.16 491.764 1848 316.8 1848C141.836 1848 0 1706.16 0 1531.2C0 1356.24 141.836 1214.4 316.8 1214.4C491.764 1214.4 633.6 1356.24 633.6 1531.2Z" fill="#A9C3EE"/>
<path d="M950.4 1399.2C950.4 1472.1 891.302 1531.2 818.4 1531.2C745.498 1531.2 686.4 1472.1 686.4 1399.2C686.4 1326.3 745.498 1267.2 818.4 1267.2C891.302 1267.2 950.4 1326.3 950.4 1399.2Z" fill="#A9C3EE"/>
<path d="M897.6 448.8C897.6 521.702 838.502 580.8 765.6 580.8C692.698 580.8 633.6 521.702 633.6 448.8C633.6 375.898 692.698 316.8 765.6 316.8C838.502 316.8 897.6 375.898 897.6 448.8Z" fill="#A9C3EE"/>
</svg>
