<svg width="1440" height="1024" viewBox="0 0 1440 1024" fill="none" xmlns="http://www.w3.org/2000/svg">
<g clip-path="url(#clip0_218_824)">
<path d="M-122 52C-122 -93.8031 -3.80316 -212 142 -212H1198C1343.8 -212 1462 -93.8032 1462 52V1108C1462 1253.8 1343.8 1372 1198 1372H142C-3.80314 1372 -122 1253.8 -122 1108V52Z" fill="#246EE9"/>
<path d="M467.776 874.4V316.04H715.672C776.92 316.04 823.648 330.824 855.856 360.392C888.064 389.96 904.168 430.616 904.168 482.36C904.168 533.576 888.064 574.232 855.856 604.328C823.648 634.424 776.92 649.472 715.672 649.472H569.944V874.4H467.776ZM569.944 568.688H703.792C737.584 568.688 762.928 561.296 779.824 546.512C796.72 531.2 805.168 509.816 805.168 482.36C805.168 454.904 796.72 433.784 779.824 419C762.928 403.688 737.584 396.032 703.792 396.032H569.944V568.688Z" fill="white"/>
<circle cx="1145.2" cy="-27.2" r="316.8" fill="#A9C3EE"/>
<path d="M511.6 1187.2C511.6 1362.16 369.764 1504 194.8 1504C19.8362 1504 -122 1362.16 -122 1187.2C-122 1012.24 19.8362 870.4 194.8 870.4C369.764 870.4 511.6 1012.24 511.6 1187.2Z" fill="#A9C3EE"/>
<path d="M828.4 1055.2C828.4 1128.1 769.301 1187.2 696.4 1187.2C623.498 1187.2 564.4 1128.1 564.4 1055.2C564.4 982.298 623.498 923.2 696.4 923.2C769.301 923.2 828.4 982.298 828.4 1055.2Z" fill="#A9C3EE"/>
<path d="M775.6 104.8C775.6 177.702 716.502 236.8 643.6 236.8C570.699 236.8 511.6 177.702 511.6 104.8C511.6 31.8985 570.699 -27.2 643.6 -27.2C716.502 -27.2 775.6 31.8985 775.6 104.8Z" fill="#A9C3EE"/>
</g>
<rect x="-122" y="-212" width="1584" height="1584" rx="264" fill="#104DB3" fill-opacity="0.92"/>
<defs>
<clipPath id="clip0_218_824">
<path d="M-122 52C-122 -93.8031 -3.80316 -212 142 -212H1198C1343.8 -212 1462 -93.8032 1462 52V1108C1462 1253.8 1343.8 1372 1198 1372H142C-3.80314 1372 -122 1253.8 -122 1108V52Z" fill="white"/>
</clipPath>
</defs>
</svg>
