<svg width="1517" height="1193" viewBox="0 0 1517 1193" fill="none" xmlns="http://www.w3.org/2000/svg">
<g clip-path="url(#clip0_283_463)">
<path d="M616 504C616 476.386 638.386 454 666 454H866C893.614 454 916 476.386 916 504V704C916 731.614 893.614 754 866 754H666C638.386 754 616 731.614 616 704V504Z" fill="white"/>
<path d="M727.7 660V554.25H774.65C786.25 554.25 795.1 557.05 801.2 562.65C807.3 568.25 810.35 575.95 810.35 585.75C810.35 595.45 807.3 603.15 801.2 608.85C795.1 614.55 786.25 617.4 774.65 617.4H747.05V660H727.7ZM747.05 602.1H772.4C778.8 602.1 783.6 600.7 786.8 597.9C790 595 791.6 590.95 791.6 585.75C791.6 580.55 790 576.55 786.8 573.75C783.6 570.85 778.8 569.4 772.4 569.4H747.05V602.1Z" fill="#246EE9"/>
<circle cx="856" cy="489" r="60" fill="#A9C3EE"/>
<path d="M736 719C736 752.137 709.137 779 676 779C642.863 779 616 752.137 616 719C616 685.863 642.863 659 676 659C709.137 659 736 685.863 736 719Z" fill="#A9C3EE"/>
<path d="M796 694C796 707.807 784.807 719 771 719C757.193 719 746 707.807 746 694C746 680.193 757.193 669 771 669C784.807 669 796 680.193 796 694Z" fill="#A9C3EE"/>
<path d="M786 514C786 527.807 774.807 539 761 539C747.193 539 736 527.807 736 514C736 500.193 747.193 489 761 489C774.807 489 786 500.193 786 514Z" fill="#A9C3EE"/>
</g>
<ellipse cx="181.5" cy="1013" rx="181.5" ry="180" fill="#A9C3EE"/>
<circle cx="466" cy="893" r="60" fill="#A9C3EE"/>
<circle cx="1048" cy="300" r="60" fill="#A9C3EE"/>
<ellipse cx="1335.5" cy="180" rx="181.5" ry="180" fill="#A9C3EE"/>
<defs>
<clipPath id="clip0_283_463">
<path d="M616 504C616 476.386 638.386 454 666 454H866C893.614 454 916 476.386 916 504V704C916 731.614 893.614 754 866 754H666C638.386 754 616 731.614 616 704V504Z" fill="white"/>
</clipPath>
</defs>
</svg>
